<svg xmlns="http://www.w3.org/2000/svg" viewBox="0 0 64 64" width="64" height="64" role="img" aria-label="Recruitment Consultant mark">
  <defs>
    <linearGradient id="rcBg" x1="0" y1="0" x2="1" y2="1">
      <stop offset="0%" stop-color="#0a2c6b"/>
      <stop offset="52%" stop-color="#0b3d91"/>
      <stop offset="100%" stop-color="#1a73e8"/>
    </linearGradient>
    <linearGradient id="rcGold" x1="0" y1="0" x2="0" y2="1">
      <stop offset="0%" stop-color="#ffcf78"/>
      <stop offset="100%" stop-color="#f5a524"/>
    </linearGradient>
  </defs>

  <rect width="64" height="64" rx="17" fill="url(#rcBg)"/>
  <path d="M0 42c15 9 30 10 43 5s17-11 21-17v27a17 17 0 0 1-17 17H17A17 17 0 0 1 0 57Z" fill="#ffffff" opacity=".07"/>
  <path d="M9 47 24 36l12 5 19-21" fill="none" stroke="#ffcf78" stroke-width="2.6" stroke-linecap="round" stroke-linejoin="round" opacity=".22"/>

  <g>
    <circle cx="16.6" cy="29" r="3.3" fill="#9dbcfc"/>
    <rect x="12.8" y="34.4" width="7.6" height="15.6" rx="3.8" fill="#9dbcfc"/>

    <circle cx="31.6" cy="22.9" r="3.7" fill="#ffffff"/>
    <rect x="27.3" y="28.7" width="8.6" height="21.3" rx="4.3" fill="#ffffff"/>

    <circle cx="47" cy="16.7" r="4.1" fill="url(#rcGold)"/>
    <rect x="42.2" y="23" width="9.6" height="27" rx="4.8" fill="url(#rcGold)"/>
  </g>

  <rect x="11" y="52.6" width="42" height="2.2" rx="1.1" fill="#ffffff" opacity=".28"/>
</svg>
